<svg id="Capa_1" enable-background="new 0 0 512 512" height="512" viewBox="0 0 512 512" width="512" xmlns="http://www.w3.org/2000/svg"><g><path d="m100.024 295.428h-36.155c-20.395 0-36.929-16.533-36.929-36.929 0-20.395 16.533-36.929 36.929-36.929h36.156v73.858z" fill="#1e608b"/><path d="m411.976 295.428h36.156c20.395 0 36.929-16.533 36.929-36.929 0-20.395-16.533-36.929-36.929-36.929h-36.156z" fill="#1e3f6b"/><path d="m333.33 49.43v34.43h-30v-34.43c0-10.71-8.72-19.43-19.43-19.43h-62.33c-10.71 0-19.43 8.72-19.43 19.43v34.43h-30v-34.43c0-27.26 22.18-49.43 49.43-49.43h62.33c27.26 0 49.43 22.17 49.43 49.43z" fill="#1e608b"/><path d="m333.33 49.43v34.43h-30v-34.43c0-10.71-8.72-19.43-19.43-19.43h-27.9v-30h27.9c27.26 0 49.43 22.17 49.43 49.43z" fill="#1e3f6b"/><path d="m440.64 142.71-36.93 369.29h-295.42l-36.93-369.29 184.64-14z" fill="#50c5ff"/><path d="m440.64 142.71-36.93 369.29h-147.71v-383.29z" fill="#4889ff"/><path d="m34.43 68.86h443.14v73.85h-443.14z" fill="#1e608b"/><path d="m256 68.86h221.57v73.85h-221.57z" fill="#1e3f6b"/><path d="m175.407 221.571h30v206.572h-30z" fill="#1e608b"/><path d="m241 221.57h30v206.57h-30z" fill="#1e608b"/><g fill="#1e3f6b"><path d="m256 221.57h15v206.57h-15z"/><path d="m306.593 221.571h30v206.572h-30z"/></g></g></svg>